<?xml version="1.0" encoding="UTF-8" standalone="no"?>
<svg
   xmlns:dc="http://purl.org/dc/elements/1.1/"
   xmlns:cc="http://creativecommons.org/ns#"
   xmlns:rdf="http://www.w3.org/1999/02/22-rdf-syntax-ns#"
   xmlns:svg="http://www.w3.org/2000/svg"
   xmlns="http://www.w3.org/2000/svg"
   xmlns:sodipodi="http://sodipodi.sourceforge.net/DTD/sodipodi-0.dtd"
   xmlns:inkscape="http://www.inkscape.org/namespaces/inkscape"
   width="42.428719mm"
   height="133.08136mm"
   version="1.1"
   viewBox="0 0 42.428719 133.08136"
   id="svg85"
   sodipodi:docname="ribosome_f.svg"
   inkscape:version="1.0.1 (0767f8302a, 2020-10-17)">
  <sodipodi:namedview
     pagecolor="#ffffff"
     bordercolor="#666666"
     borderopacity="1"
     objecttolerance="10"
     gridtolerance="10"
     guidetolerance="10"
     inkscape:pageopacity="0"
     inkscape:pageshadow="2"
     inkscape:window-width="1848"
     inkscape:window-height="1043"
     id="namedview87"
     showgrid="false"
     fit-margin-top="2.5"
     fit-margin-left="2.5"
     fit-margin-right="2.5"
     fit-margin-bottom="2.5"
     lock-margins="true"
     inkscape:zoom="1.5501633"
     inkscape:cx="43.036168"
     inkscape:cy="331.97675"
     inkscape:window-x="72"
     inkscape:window-y="0"
     inkscape:window-maximized="1"
     inkscape:current-layer="svg85" />
  <defs
     id="defs29">
    <filter
       id="filter1223"
       x="-0.10667"
       y="-0.11959"
       width="1.2133"
       height="1.2392"
       color-interpolation-filters="sRGB">
      <feGaussianBlur
         stdDeviation="0.019924935"
         id="feGaussianBlur2" />
    </filter>
    <filter
       id="filter1247"
       x="-0.15064999"
       y="-0.16891"
       width="1.3013"
       height="1.3378"
       color-interpolation-filters="sRGB">
      <feGaussianBlur
         stdDeviation="0.028141521"
         id="feGaussianBlur5" />
    </filter>
    <filter
       id="filter1259"
       x="-0.12049"
       y="-0.13508999"
       width="1.2410001"
       height="1.2702"
       color-interpolation-filters="sRGB">
      <feGaussianBlur
         stdDeviation="0.013723604"
         id="feGaussianBlur8" />
    </filter>
    <filter
       id="filter1279"
       x="-0.32137999"
       y="-0.36032999"
       width="1.6428"
       height="1.7207"
       color-interpolation-filters="sRGB">
      <feGaussianBlur
         stdDeviation="0.060033352"
         id="feGaussianBlur11" />
    </filter>
    <filter
       id="filter1760"
       x="-0.92927998"
       y="-0.45526001"
       width="2.8585999"
       height="1.9105"
       color-interpolation-filters="sRGB">
      <feGaussianBlur
         stdDeviation="0.57320844"
         id="feGaussianBlur14" />
    </filter>
    <filter
       id="filter1864"
       x="-0.098205999"
       y="-0.085825004"
       width="1.1964"
       height="1.1717"
       color-interpolation-filters="sRGB">
      <feGaussianBlur
         stdDeviation="0.13348697"
         id="feGaussianBlur17" />
    </filter>
    <filter
       id="filter1976"
       x="-0.14035"
       y="-0.1718"
       width="1.2807"
       height="1.3436"
       color-interpolation-filters="sRGB">
      <feGaussianBlur
         stdDeviation="0.2450701"
         id="feGaussianBlur20" />
    </filter>
    <filter
       id="filter1000"
       x="-0.13576999"
       y="-0.11413"
       width="1.2715"
       height="1.2283"
       color-interpolation-filters="sRGB">
      <feGaussianBlur
         stdDeviation="0.20339767"
         id="feGaussianBlur23" />
    </filter>
    <filter
       id="filter4269"
       x="-0.54010999"
       y="-0.26321"
       width="2.0802"
       height="1.5264"
       color-interpolation-filters="sRGB">
      <feGaussianBlur
         stdDeviation="1.1876744"
         id="feGaussianBlur26" />
    </filter>
  </defs>
  <metadata
     id="metadata31">
    <rdf:RDF>
      <cc:Work
         rdf:about="">
        <dc:format>image/svg+xml</dc:format>
        <dc:type
           rdf:resource="http://purl.org/dc/dcmitype/StillImage" />
        <dc:title></dc:title>
      </cc:Work>
    </rdf:RDF>
  </metadata>
  <path
     d="m 11.053876,119.53869 c -0.59843,0.6956 -0.81624,1.6999 -0.55977,2.5809 0.20342,0.69877 0.68498,1.3014 1.2883,1.7084 0.60331,0.40704 1.322099,0.62576 2.046999,0.68968 1.5921,0.14037 3.178,-0.44974 4.5145,-1.3263 1.382,-0.90645 2.5423,-2.1093 3.8553,-3.113 1.701,-1.3004 3.6368,-2.2512 5.519,-3.2719 1.145,-0.62095 2.2871,-1.2797 3.2289,-2.1796 0.94179,-0.89982 1.6772,-2.0729 1.8215,-3.3674 0.10822,-0.97113 -0.12677,-1.9725 -0.63042,-2.8098 -0.50365,-0.83735 -1.2697,-1.5093 -2.1531,-1.9269 -0.388,-0.18343 -0.80338,-0.32028 -1.2317,-0.34769 -0.4283,-0.0274 -0.87142,0.0605 -1.2301,0.29619 -0.02701,0.0178 -0.0535,0.0363 -0.07942,0.0556"
     fill="#00d4aa"
     stroke="#002b22"
     stroke-width="0.26458px"
     id="path33" />
  <g
     id="g51"
     transform="translate(-21.928125,-38.701307)">
    <g
       id="g41">
      <path
         d="m 28.797,155.76 c -0.53884,-0.93699 -0.99753,-1.9201 -1.3694,-2.935 -0.79604,-2.1724 -1.1913,-4.5033 -1.0383,-6.8118 0.11938,-1.802 0.59967,-3.6364 1.7297,-5.0451 1.2945,-1.6136 3.2822,-2.4957 4.8244,-3.8744 1.059,-0.94669 1.9326,-2.1463 3.2012,-2.7853 0.93123,-0.46909 2.0129,-0.59261 3.0476,-0.46416 1.0348,0.12845 2.0276,0.49823 2.9572,0.97044 1.6118,0.81872 3.0623,1.9556 4.235,3.3315 1.1589,1.3597 2.0455,2.9525 2.576,4.6585 0.42933,1.3806 0.62507,2.8587 0.35694,4.2794 -0.26814,1.4207 -1.0355,2.7793 -2.238,3.582 -0.8155,0.5444 -1.7787,0.81064 -2.7005,1.1448 -0.59687,0.21639 -1.1847,0.46536 -1.7273,0.79498 -0.41281,0.25077 -0.80192,0.5516 -1.0972,0.9338 -0.27226,0.35237 -0.45944,0.76652 -0.74933,1.1045 -0.48933,0.57055 -1.2164,0.86683 -1.8393,1.2876 -0.39775,0.26866 -0.75593,0.59084 -1.1304,0.8911 -0.37447,0.30026 -0.77162,0.58221 -1.2198,0.75412 -0.42461,0.16288 -0.88102,0.22173 -1.3332,0.27049 -0.18824,0.0203 -0.37668,0.0391 -0.5644,0.0637 -0.67586,0.0887 -1.3449,0.25337 -2.0265,0.25882 -0.57101,0.005 -1.1429,-0.10457 -1.6713,-0.32116 -0.96211,-0.39439 -1.7697,-1.153 -2.2234,-2.0886 z"
         fill="#00d4aa"
         stroke="#002b22"
         stroke-width="0.38"
         id="path35" />
      <ellipse
         transform="rotate(-34.994)"
         cx="-43.817001"
         cy="135.95"
         rx="2.2779"
         ry="2.3022001"
         fill="#ffffff"
         stroke="#1a1a1a"
         stroke-width="0.2"
         id="ellipse37" />
      <ellipse
         transform="rotate(-34.994)"
         cx="-47.511002"
         cy="136.42999"
         rx="2.2779"
         ry="2.3022001"
         fill="#ffffff"
         stroke="#1a1a1a"
         stroke-width="0.2"
         id="ellipse39" />
    </g>
    <g
       stroke="#000000"
       id="g49">
      <ellipse
         transform="rotate(-34.994)"
         cx="-46.577"
         cy="135.82001"
         rx="0.54062998"
         ry="0.53064001"
         stroke-width="0.36773"
         id="ellipse43" />
      <circle
         transform="rotate(-34.994)"
         cx="-42.93"
         cy="135.05"
         r="0.48389"
         stroke-width="0.33222"
         id="circle45" />
      <path
         d="m 44.33,140.56 c 0.2224,-0.12742 0.66696,-0.38214 1.0497,-0.29243 0.38274,0.0897 0.70374,0.52355 0.92399,0.95022 0.22025,0.42668 0.33984,0.84619 0.1992,1.2172 -0.14064,0.37098 -0.54153,0.69356 -0.96001,0.77182 -0.41848,0.0783 -0.85428,-0.0881 -1.2199,-0.2873 -0.36557,-0.19917 -0.6605,-0.43101 -0.75438,-0.70403 -0.09389,-0.27303 0.01352,-0.58691 0.12094,-0.90084 0.13944,-0.20917 0.27897,-0.41847 0.34865,-0.52298 0.06968,-0.10452 0.06937,-0.1042 0.29177,-0.23163 z"
         fill="#d7c1d2"
         stroke-width="0.22213px"
         id="path47" />
    </g>
  </g>
  <g
     fill="#ffffff"
     stroke="#ffffff"
     id="g61"
     transform="translate(-21.928125,-38.701307)">
    <ellipse
       transform="rotate(-34.994,92.263,293.48)"
       cx="137.96001"
       cy="136.39"
       rx="0.22416"
       ry="0.19993"
       filter="url(#filter1279)"
       stroke-width="0.065"
       id="ellipse53" />
    <ellipse
       transform="rotate(-34.994,92.263,293.48)"
       cx="137.92999"
       cy="135.41"
       rx="0.13668001"
       ry="0.12191"
       filter="url(#filter1259)"
       stroke-width="0.039634"
       id="ellipse55" />
    <ellipse
       transform="rotate(-34.994,92.263,293.48)"
       cx="141.86"
       cy="135.77"
       rx="0.22416"
       ry="0.19993"
       filter="url(#filter1247)"
       stroke-width="0.065"
       id="ellipse57" />
    <ellipse
       transform="rotate(-34.994,92.263,293.48)"
       cx="141.53"
       cy="134.69"
       rx="0.22416"
       ry="0.19993"
       filter="url(#filter1223)"
       stroke-width="0.065"
       id="ellipse59" />
  </g>
  <g
     stroke-width="0.26458px"
     id="g71"
     transform="translate(-21.928125,-38.701307)">
    <path
       d="M 45.973,141.6"
       fill="none"
       stroke="#000000"
       id="path63" />
    <path
       transform="rotate(-34.994,92.263,293.48)"
       d="m 125.13,134.71 c -0.47,0.29351 -0.92238,0.6293 -1.268,1.0624 -0.24355,0.30516 -0.42874,0.65176 -0.61688,0.99387 -0.0935,0.17002 -0.18893,0.34154 -0.2399,0.52876 -0.051,0.18722 -0.0536,0.39494 0.0343,0.56791 0.0482,0.0949 0.12248,0.17616 0.21154,0.23452 0.0891,0.0584 0.19265,0.0939 0.29859,0.10456 0.21187,0.0214 0.42875,-0.059 0.58655,-0.20199 0.19429,-0.17607 0.29603,-0.4316 0.36478,-0.68463 0.0687,-0.25303 0.11168,-0.51501 0.21783,-0.75476 0.10767,-0.24318 0.27725,-0.45506 0.4701,-0.6382 0.19284,-0.18314 0.40933,-0.33934 0.62657,-0.49275 0.10685,-0.0754 0.21559,-0.15177 0.29777,-0.25355 0.0411,-0.0509 0.0751,-0.10795 0.0961,-0.16991 0.0209,-0.062 0.0285,-0.12896 0.0174,-0.19342 -0.0185,-0.1076 -0.0892,-0.20276 -0.18135,-0.26138 -0.0921,-0.0586 -0.2038,-0.0824 -0.31291,-0.0784 -0.21821,0.008 -0.41721,0.12126 -0.60242,0.23692 z"
       fill="#aaffee"
       filter="url(#filter1864)"
       opacity="0.38081"
       stroke="#aaffee"
       id="path65" />
    <path
       transform="rotate(-34.994,92.263,293.48)"
       d="m 121.03,150.9 c -0.19469,0.39643 -0.30646,0.83936 -0.27839,1.2801 0.0281,0.44076 0.20299,0.87813 0.51829,1.1874 0.23654,0.23202 0.54312,0.38539 0.86386,0.46852 0.32074,0.0831 0.65598,0.0986 0.98678,0.0798 0.42525,-0.0242 0.85933,-0.10934 1.2157,-0.34256 0.17821,-0.11661 0.33418,-0.26968 0.44282,-0.45285 0.10864,-0.18318 0.16857,-0.39701 0.15781,-0.60971 -0.0127,-0.25185 -0.12392,-0.49291 -0.28588,-0.6862 -0.16197,-0.19328 -0.37251,-0.34145 -0.59691,-0.45651 -0.44879,-0.23012 -0.95221,-0.33241 -1.4134,-0.53658 -0.24979,-0.11059 -0.48993,-0.25198 -0.75724,-0.3083 -0.13365,-0.0282 -0.27351,-0.0341 -0.40646,-0.003 -0.13294,0.0313 -0.25867,0.10174 -0.34423,0.20821 -0.0418,0.052 -0.0734,0.11144 -0.10281,0.17136 z"
       fill="#d5fff6"
       filter="url(#filter1976)"
       opacity="0.29279"
       stroke="#d5fff6"
       id="path67" />
    <path
       transform="rotate(-34.994,92.263,293.48)"
       d="m 135.74,135.5 c -0.1411,0.0852 -0.24336,0.23219 -0.27417,0.39411 -0.0139,0.0732 -0.0139,0.14828 -0.0171,0.22276 -0.008,0.1934 -0.0397,0.38524 -0.0488,0.57861 -0.009,0.19336 0.005,0.39231 0.0831,0.56948 0.0615,0.13967 0.15967,0.25946 0.25703,0.37698 0.13685,0.16519 0.27479,0.33006 0.42839,0.4798 0.0788,0.0768 0.16389,0.15097 0.26622,0.19146 0.0512,0.0202 0.10623,0.0316 0.16121,0.0294 0.055,-0.002 0.10985,-0.0184 0.15518,-0.0495 0.0476,-0.0327 0.0834,-0.0813 0.10412,-0.13518 0.0207,-0.0539 0.0265,-0.113 0.0204,-0.17042 -0.0122,-0.11484 -0.0707,-0.22011 -0.14163,-0.31128 -0.10822,-0.13917 -0.246,-0.25186 -0.3794,-0.36712 -0.13341,-0.11525 -0.26544,-0.23645 -0.35743,-0.38684 -0.0913,-0.1493 -0.13949,-0.32254 -0.15422,-0.49693 -0.0243,-0.28781 0.0396,-0.57495 0.10282,-0.85678 0.008,-0.0348 0.0157,-0.0701 0.0154,-0.10576 -3.2e-4,-0.0357 -0.01,-0.0725 -0.0325,-0.0999 -0.0188,-0.0224 -0.0463,-0.0374 -0.0753,-0.041 -0.029,-0.004 -0.0593,0.004 -0.083,0.0215 -0.0237,0.0172 -0.0404,0.0436 -0.046,0.0724 -0.006,0.0287 2.2e-4,0.0595 0.0158,0.0843 z"
       fill="#999999"
       filter="url(#filter1760)"
       opacity="0.42757"
       stroke="#999999"
       id="path69" />
  </g>
  <g
     fill="none"
     stroke-width="0.26458px"
     id="g79"
     transform="translate(-21.928125,-38.701307)">
    <path
       transform="rotate(-34.994,92.263,293.48)"
       d="m 121.64,138.85 c -0.12013,-0.24487 -0.14206,-0.53626 -0.0599,-0.79636 0.0821,-0.26009 0.26743,-0.48604 0.50641,-0.61751 0.12224,-0.0673 0.25612,-0.10995 0.38588,-0.16121 0.12976,-0.0513 0.25864,-0.11317 0.35826,-0.21086 0.0835,-0.0819 0.14308,-0.18617 0.18213,-0.29645 0.039,-0.11028 0.0583,-0.22671 0.0684,-0.34326 0.0202,-0.2331 0.005,-0.46964 0.0472,-0.69974 0.0782,-0.4246 0.3632,-0.8061 0.74816,-1.0016 0.38496,-0.1955 0.86113,-0.20045 1.2501,-0.0131"
       filter="url(#filter1000)"
       opacity="0.2992"
       stroke="#dedbe3"
       id="path73" />
    <path
       d="m 44.284,86.983 c 0.03688,1.1959 0.15525,2.3892 0.35402,3.569 0.35952,2.134 0.98229,4.2295 1.1283,6.3886 0.1445,2.1362 -0.18177,4.2861 0,6.4195 0.2472,2.9012 1.4184,5.6355 2.0521,8.4774 0.93805,4.2068 0.68524,8.5726 0.8419,12.88 0.09892,2.72 0.36348,5.4356 0.8419,8.115 0.45506,2.5486 1.106,5.0943 1.0237,7.6818 -0.04683,1.4727 -0.33392,2.9374 -0.84649,4.3188"
       stroke="#000000"
       stroke-linecap="round"
       id="path75" />
    <path
       d="m 32.982,158.24 c -1.243,0.62543 -2.364,1.492 -3.2824,2.5373 -0.97887,1.1142 -1.7283,2.4358 -2.1356,3.8618 -0.40728,1.426 -0.46761,2.9559 -0.127,4.3993 0.01661,0.0704 0.03415,0.14055 0.05262,0.21047"
       stroke="#000000"
       id="path77" />
  </g>
  <path
     d="m 22.002875,2.6016932 c -0.39095,-0.0054 -0.78205,0.0021 -1.1725,0.02273 -3.1239,0.16587 -6.199,1.1721999 -8.818099,2.8829999 -2.6191003,1.7108 -4.7758003,4.1215 -6.1893003,6.9121999 -1.4776,2.9173 -2.1356,6.2135 -2.1296,9.4837 0.006,3.2702 0.6622,6.518 1.6986,9.6196 1.2778,3.8241 3.181,7.5114 6.0461003,10.348 2.736699,2.7097 6.425099,4.5777 10.262999,4.6767 l -0.93741,1.8366 h 3.2303 l -1.2619,-1.8536 c 3.8756,-0.22445 7.5356,-2.2541 10.186,-5.1051 2.7624,-2.971 4.5149,-6.7626 5.6255,-10.664 0.94158,-3.3082 1.4526,-6.7615 1.2356,-10.194 -0.217,-3.4327 -1.1823,-6.8476 -3.0267,-9.7508 -1.6775,-2.6404999 -4.0695,-4.8216999 -6.8518,-6.2517999 -2.4345,-1.2512999 -5.1621,-1.9248999 -7.8987,-1.9626999 z"
     fill="#ff5599"
     stroke="#1f1c24"
     stroke-width="0.2"
     id="path81" />
  <path
     d="m 9.9118757,11.274693 c -0.49487,0.56155 -0.94882,1.1633 -1.3022,1.8231 -0.3882,0.72472 -0.65056,1.5107 -0.85577,2.3068 -0.16976,0.65857 -0.30203,1.3281 -0.52089,1.972 -0.24655,0.72538 -0.60639,1.4381 -0.60386,2.2042 0.0013,0.38306 0.10024,0.77369 0.32943,1.0806 0.11459,0.15347 0.26073,0.28424 0.42952,0.37476 0.1688,0.09052 0.36036,0.14008 0.55184,0.13554 0.29135,-0.0069 0.57198,-0.13963 0.78603,-0.3374 0.21405,-0.19778 0.36498,-0.45699 0.46446,-0.73092 0.19896,-0.54785 0.19815,-1.1444 0.27499,-1.7222 0.1742,-1.31 0.7488503,-2.5263 1.2278003,-3.7579 0.22796,-0.58615 0.43591,-1.1812 0.70693,-1.7487 0.19228,-0.40264 0.41904,-0.79994 0.487,-1.2409 0.03398,-0.2205 0.02613,-0.4501 -0.04603,-0.6612 -0.07216,-0.2111 -0.21186,-0.40254 -0.40377,-0.51632 -0.19914,-0.11807 -0.44953,-0.14589 -0.66973,-0.07441 -0.29751,0.28557 -0.58309,0.58357 -0.8557503,0.89296 z"
     fill="#f9f9f9"
     filter="url(#filter4269)"
     stroke-width="0"
     id="path83" />
</svg>
